<svg xmlns="http://www.w3.org/2000/svg" viewBox="0 0 129.38 128.86"><defs><style>.cls-1{fill:#fff;}</style></defs><g id="Layer_2" data-name="Layer 2"><g id="Layer_1-2" data-name="Layer 1"><path class="cls-1" d="M127.65,120.12a17.86,17.86,0,0,0-3.4-4.25c-3.15-2.79-12.3-12-24.92-24.74C119.22,64.88,113.45,31.45,92,13.25a55.86,55.86,0,0,0-80.4,76.68C28.39,112.42,63.32,120.68,91,99.69l22.85,22.61a22.06,22.06,0,0,0,2.92,2.91c2.42,2,4.55,3.8,7.28,3.64,2-.11,4.55-1.28,5.21-3.35C129.77,123.77,128.78,122.06,127.65,120.12ZM55.73,99.71A43.37,43.37,0,0,1,12,55.74a43.73,43.73,0,1,1,43.69,44Z"/></g></g></svg>